<svg id="Layer_2" data-name="Layer 2" xmlns="http://www.w3.org/2000/svg" viewBox="0 0 52.9 141.35"><defs><style>.cls-1{fill:none;}.cls-1,.cls-2{stroke:#fcfcfc;stroke-miterlimit:10;}.cls-2{fill:#fcfcfc;}</style></defs><path class="cls-1" d="M95.78,159.56S136,112,109.66,85.61C82.78,58.74,56.19,92.28,80.27,116.5c17.91,18,38.75-16,41.13-42.79,2.26-25.36-7.22-31.79-11-34.81" transform="translate(-70.35 -18.53)"/><path class="cls-2" d="M120.17,35.4c-12.32-2.84-27.62-24.46-22.88-13.09,3.32,8,2.53,17,3.39,25.8.14,0,.28.08.43.1l.39,0C106,38.19,130.68,37.83,120.17,35.4Z" transform="translate(-70.35 -18.53)"/><path class="cls-2" d="M100.27,43.05c-.42-.07.88-8.47.47-8.55.6,1.66-.71,11.54-.66,13,.22,5.59,2.25-1.06,6-4.51C104.56,42.5,101.89,43.31,100.27,43.05Z" transform="translate(-70.35 -18.53)"/></svg>